<svg xmlns="http://www.w3.org/2000/svg" version="1.1" xmlns:xlink="http://www.w3.org/1999/xlink" xmlns:svgjs="http://svgjs.dev/svgjs" viewBox="0 0 800 800"><defs><linearGradient x1="50%" y1="0%" x2="50%" y2="100%" id="hhhorizon-grad"><stop stop-color="hsl(184, 74%, 44%)" stop-opacity="1" offset="25%"></stop><stop stop-color="hsl(332, 87%, 70%)" stop-opacity="1" offset="100%"></stop></linearGradient><linearGradient x1="50%" y1="0%" x2="50%" y2="100%" id="hhhorizon-grad2"><stop stop-color="hsl(332, 87%, 70%)" stop-opacity="1" offset="0%"></stop><stop stop-color="hsl(184, 74%, 44%)" stop-opacity="1" offset="75%"></stop></linearGradient><clipPath id="SvgjsClipPath1027"><rect width="800" height="42" x="0" y="0"></rect><rect width="800" height="41" x="0" y="20"></rect><rect width="800" height="40" x="0" y="39"></rect><rect width="800" height="39" x="0" y="59"></rect><rect width="800" height="38" x="0" y="78"></rect><rect width="800" height="37" x="0" y="98"></rect><rect width="800" height="36" x="0" y="117"></rect><rect width="800" height="35" x="0" y="137"></rect><rect width="800" height="34" x="0" y="156"></rect><rect width="800" height="33" x="0" y="176"></rect><rect width="800" height="32" x="0" y="195"></rect><rect width="800" height="31" x="0" y="215"></rect><rect width="800" height="30" x="0" y="234"></rect><rect width="800" height="29" x="0" y="254"></rect><rect width="800" height="28" x="0" y="273"></rect><rect width="800" height="27" x="0" y="293"></rect><rect width="800" height="26" x="0" y="312"></rect><rect width="800" height="25" x="0" y="332"></rect><rect width="800" height="24" x="0" y="351"></rect><rect width="800" height="23" x="0" y="371"></rect><rect width="800" height="22" x="0" y="390"></rect><rect width="800" height="21" x="0" y="410"></rect><rect width="800" height="20" x="0" y="429"></rect><rect width="800" height="19" x="0" y="449"></rect><rect width="800" height="18" x="0" y="468"></rect><rect width="800" height="17" x="0" y="488"></rect><rect width="800" height="16" x="0" y="507"></rect><rect width="800" height="15" x="0" y="527"></rect><rect width="800" height="14" x="0" y="546"></rect><rect width="800" height="13" x="0" y="566"></rect><rect width="800" height="12" x="0" y="585"></rect><rect width="800" height="11" x="0" y="605"></rect><rect width="800" height="10" x="0" y="624"></rect><rect width="800" height="9" x="0" y="644"></rect><rect width="800" height="8" x="0" y="663"></rect><rect width="800" height="7" x="0" y="683"></rect><rect width="800" height="6" x="0" y="702"></rect><rect width="800" height="5" x="0" y="722"></rect><rect width="800" height="4" x="0" y="741"></rect><rect width="800" height="3" x="0" y="761"></rect><rect width="800" height="2" x="0" y="780"></rect><rect width="800" height="1" x="0" y="800"></rect></clipPath><clipPath><rect width="800" height="1" x="0" y="42"></rect><rect width="800" height="2" x="0" y="84"></rect><rect width="800" height="3" x="0" y="126"></rect><rect width="800" height="4" x="0" y="168"></rect><rect width="800" height="5" x="0" y="210"></rect><rect width="800" height="6" x="0" y="252"></rect><rect width="800" height="7" x="0" y="294"></rect><rect width="800" height="8" x="0" y="336"></rect><rect width="800" height="9" x="0" y="378"></rect><rect width="800" height="10" x="0" y="420"></rect><rect width="800" height="11" x="0" y="462"></rect><rect width="800" height="12" x="0" y="504"></rect><rect width="800" height="13" x="0" y="546"></rect><rect width="800" height="14" x="0" y="588"></rect><rect width="800" height="15" x="0" y="630"></rect><rect width="800" height="16" x="0" y="672"></rect><rect width="800" height="17" x="0" y="714"></rect><rect width="800" height="18" x="0" y="756"></rect><rect width="800" height="19" x="0" y="798"></rect><rect width="800" height="20" x="0" y="840"></rect></clipPath></defs><rect width="800" height="800" fill="url(#hhhorizon-grad)" clip-path="url(&quot;#SvgjsClipPath1027&quot;)"></rect><circle r="400" cx="400" cy="0" fill="url(#hhhorizon-grad)" clip-path="url(&quot;#SvgjsClipPath1027&quot;)"></circle><circle r="400" cx="400" cy="800" fill="url(#hhhorizon-grad)" clip-path="url(&quot;#SvgjsClipPath1027&quot;)"></circle></svg>