<svg xmlns="http://www.w3.org/2000/svg" version="1.1" xmlns:xlink="http://www.w3.org/1999/xlink" xmlns:svgjs="http://svgjs.dev/svgjs" viewBox="0 0 800 800"><defs><linearGradient x1="50%" y1="0%" x2="50%" y2="100%" id="ssscribble-grad"><stop stop-color="hsl(206, 75%, 49%)" stop-opacity="1" offset="0%"></stop><stop stop-color="hsl(331, 90%, 56%)" stop-opacity="1" offset="100%"></stop></linearGradient></defs><g fill="none" stroke-width="1.5" stroke="url(#ssscribble-grad)" stroke-linecap="round"><path d="M1028.08 350.6C1095.36 383.46 1089.34 429.04 1016.75 486.05 900.8 543.19 774.16 611.16 669.08 686.21 605.42 756.44 591.68 825.14 619.75 882.16 681.8 918.45 753.16 928.02 815.69 903.46 867.06 853.65 891.18 778.85 888.82 694.96 866.55 631.85 825.91 602.56 775.79 625.67 717.2 704.57 658.92 824.82 606.62 956.36 552.95 1060.07 508.5 1102.96 475.64 1065.71 442.77 962.72 423.06 829.5 414.76 710.81 405.09 640.19 403.59 633.15 405.23 681.8 398.4 771.54 384.93 867.36 356.55 942.26 308.26 986.43 236.97 985.03 142.53 944.05 36.93 871.68 -73.39 781.38 -169.65 687.95 -231.94 592.43 -247.66 508.38 -208.09 438.75 -127.1 376.11 -19.17 325.57 84.1 283.86 144 244.96 143.36 209.89 76.08 177.03 -40.35 144.17 -162.14 115.07 -250.81 92 -286.29 71.73 -255.43 62.49 -171.47 68.17 -55.02 80.86 65.78 110.79 167.04 155.66 252.52 220.01 216.29 250.02 154.9 152.87 112.46 43.76 84.28 -81.52 72.49 -195.35 67.02 -268.1 75.89 -279.78 95.61 -221.85 117.91 -115.85 146.5 10.7 179.36 113.69 212.22 150.97 247.79 114.76 287.47 23.74 329.72 -95.11 380.63 -196.66 443.05 -251.49 511.79 -250.52 594.08 -191.78 687.17 -94.45 778.37 23.64 867.22 137.4 940.15 230.29 984.37 297.92 992.09 335.53 956.45 349.9 889.41 343.53 798.06 328.95 705.71 315.67 645.83 297.56 633.68 289.37 681.84 294.2 783.19 299.16 911.64 317.74 1028.08 350.6Q1028.08 350.6 1028.08 350.6" opacity="0.51"></path><path d="M994.08 488.15C1058.77 518.66 1060.36 560.07 1002.75 610.06 902.79 658.66 785.17 712.66 677.04 766.69 576.08 831.21 614.15 859.32 697.6 798.59 756.36 738.26 799.25 667.9 822.23 603.58 831.7 568.59 822.17 570.54 798.97 619.24 767.06 710.55 729.17 829.24 690.73 948.25 650.13 1036.43 613.31 1068.91 582.8 1031.71 552.29 937.59 529.52 814.67 512.57 699.26 493.47 619.62 475.85 592.29 454.88 615.86 425.2 682.82 384.48 767.53 327.98 846.89 257.97 911.79 171.28 943.08 72.53 939.48 -24.39 906.22 -113.6 848.13 -179.16 776.95 -209.04 695.02 -195.72 614.65 -137.47 542.15 -51.71 470.88 48.53 410.35 136.71 360.83 182.55 312.78 174.77 273.52 110.08 243 2.84 212.49 -111.12 192.16 -200.3 182.67 -247.76 174.64 -238.42 179.66 -178.92 198.04 -83.15 217.66 28.29 247.79 134.18 282.69 223.19 306.84 283.33 321.13 314.3 314.41 317.64 278.02 302.29 210.56 278.68 113.9 245.36 2.76 217.09 -109.31 199.09 -198.63 182.19 -244.58 178.12 -234.63 186.64 -166.79 196.49 -63.16 216.94 53.57 247.45 147.69 277.97 184.91 317.1 158.64 364.79 82.24 413.82 -24.98 473.4 -126.31 543.17 -195.26 614.06 -221.6 692.58 -196.2 772.93 -129.44 843.57 -33.36 902.72 73.17 939.38 173.5 948.4 262.57 924.43 329.69 867.2 375.31 793.08 402.5 709 415.74 635.59 422.61 598.46 421.46 606.49 422.97 665.73 431.91 766.68 439.47 886.84 457.64 994.08 488.15Q994.08 488.15 994.08 488.15" opacity="0.22"></path><path d="M960.08 593.06C1021.81 621.23 1029.92 654.66 986.29 691.03 902.87 725.35 797.45 758.55 691.98 785.7 601.67 804.89 540.28 811.14 511.38 799.78 514.99 776.29 542.32 734.37 582.15 677.55 633.03 621.94 679.07 568.67 713.67 531.47 742.65 526.07 756.03 555.79 755.3 623.63 748.16 720.97 731.13 833.59 707.91 938.34 682.64 1011.39 655 1034.44 626.83 997.71 598.66 912.29 571.31 800 543.46 689.77 513.56 604.68 479.34 560.79 437.68 560.97 389.59 602.78 329.82 669.15 257.44 742.04 179.42 814.36 92.95 866.38 5.15 892.24 -71.58 895.37 -132.31 873.03 -165.25 832.58 -165.67 777.67 -129.55 716.07 -59.88 654.99 24.94 590.53 114.32 532.37 186.87 483.42 219.63 434.45 205.82 395.26 144.08 367.08 45.96 338.92 -59.63 323.11 -147.39 318.95 -203.66 314.78 -212.94 321.7 -177.16 337.35 -105.05 349.62 -10.15 364.83 90.24 376.33 186.56 373.39 265.31 355.29 321.85 315.26 356.52 252.48 371.11 167.07 372.3 65.43 360.29 -36.78 345.55 -128.41 334.18 -190.88 319.77 -211.72 313.96 -183.87 318.91 -109.66 323.85 -10.3 340.06 96.26 368.23 181.69 396.4 218.45 435.19 201.12 483.36 138.95 531.53 45.07 588.58 -51.51 651.8 -128.22 711.99 -175.42 773.11 -179.88 828.53 -145.15 870.76 -78.63 896.61 8.02 898.85 100.55 879.23 194.29 833.87 276.65 766.89 343.55 695.81 398.32 626.17 438.45 574.7 468.08 559.57 489.74 584.88 507.78 652.02 526.57 750.65 543.33 861.96 564.9 960.08 593.06Q960.08 593.06 960.08 593.06" opacity="0.43"></path><path d="M926.08 626.51C984.49 652.33 997.99 676.59 967.14 697.72 900.21 717.02 809.32 729.83 711.44 733.07 618.6 730.76 544.05 715.38 493.91 685.87 469.85 651.79 469.29 607.4 485.32 558.55 517.02 519.64 552.44 491.37 584.6 483.82 618.1 505.57 641.67 557.1 653.76 636.81 662.88 734.1 661.24 836.89 650.2 926.3 637.82 984.88 618.33 999.57 592.52 963.71 566.7 886.79 535.77 785.38 499.45 681.99 461.79 594.88 416.47 538.6 362.6 518.45 305.77 535.2 239.68 578.9 166.38 636.74 94.44 704.07 21.95 763.37 -43.58 806.69 -108.48 841 -77.38 795.12 22.22 737.44 101.18 691.47 177.37 646.2 234.33 605.56 255.22 563.86 236.49 529.16 178.08 503.34 88.99 477.52 -7.77 461.8 -92.34 454.81 -154.28 446.74 -178.74 445.05 -164.61 446.28 -117.02 441.84 -43.44 434.06 43.15 417.43 135.39 387.33 220.8 341.6 292.54 277.79 350.55 200.63 391.39 110.72 417.88 16.51 434.93 -101.64 441.46 -148.76 450.77 -50.83 458.16 42.58 474.12 138.76 499.94 215.68 525.76 251.56 560.22 242.12 601.52 193.51 641.86 114.07 686.91 25.98 733.02 -52.39 773.97 -113.18 810.22 -141.56 836.09 -136.42 849.4 -101.99 845.63 -43.11 821.46 29.63 783.56 112.32 728.76 193.78 663.41 267.65 603.69 336.96 553.27 394.86 524.6 441.91 529.4 483.42 568.55 517.58 640.45 546.97 734.98 574.54 836.99 600.7 926.08 626.51Q926.08 626.51 926.08 626.51" opacity="0.22"></path><path d="M892.11 576.13C946.83 599.6 964.56 616.16 945.08 625.32 894.04 633.42 819.04 632.34 732.65 621.23 643.83 607.94 564.03 584.38 500.26 552.22 441.77 505.43 434.77 443.59 461.42 462.95 486.06 506.22 506.77 572.05 520.38 656.2 534.26 748.07 539.17 838.15 534.49 911.78 529.39 956.86 515.22 964.29 491.74 929.72 468.27 861.11 436.61 770.66 397.45 675.54 357.86 589.6 310.25 525.32 255.7 488.96 201.41 482.93 142.05 502.68 81.22 540.11 26.3 592.74 -23.19 646.81 -60.92 694.39 -82.69 737.77 -84.77 766.65 -63.59 780.48 -24.27 784.95 34.47 776.69 106.09 759.33 175.27 736.43 236.91 709.31 278.89 681.42 289.32 652.08 266.83 624.83 212.11 601.35 131.95 577.88 44.35 559.31 -35.45 544.37 -100.01 528 -135.87 512.42 -140.24 494.65 -116.02 471.33 -65.92 440.93 1.18 400.29 79.96 350.28 160.54 287.7 235.69 213.56 305.33 135.21 363.23 53.31 409.05 -23.74 445.75 -85.61 473.14 -126.41 494.37 -137.59 510.45 -118.44 524.99 -67.51 540.82 9.35 555.33 95.42 573.72 181.11 597.2 249.72 620.67 284.29 648.1 281.62 677.86 245.59 706.3 181.02 734.45 104.3 759.06 29.64 784.14 -59.69 767.51 -81.91 716.54 -21.36 672.15 38.88 619.4 105.54 565.06 172.02 522.39 240.36 493.33 302.58 486.31 356.54 507.87 408.33 557.09 452.11 630.7 488.27 719.56 523.38 811.92 552.65 892.08 576.12Q892.11 576.13 892.11 576.13" opacity="0.86"></path><path d="M857.78 460.43C908.61 481.56 929.58 493.62 920.08 497.04 883.94 500.26 825.37 494.68 753.25 481.21 673.84 468.48 596.18 449.82 526.99 428.2 468.07 412.26 423.57 399.3 393.19 394.3 375.92 403.29 369.12 426.88 368.86 467.86 376.11 524.99 384.33 597.05 390.14 678.77 398.32 760.84 401 836.32 396.45 894.37 392.23 927.17 379.96 928.49 358.83 895.61 337.71 835.08 308.73 755.59 273.11 669.85 237.82 587.98 196.71 520.05 151.92 472.29 109.51 447.53 66.5 444.93 26.69 460.14 -5.6 492.19 -29.13 531.62 -39.54 571.82 -36.85 614.82 -17.4 650.5 19.51 676.26 66.71 697.83 125.42 708.51 189.35 709.43 245.98 706.57 292.53 696.56 320.51 681.42 321.86 665.08 296.61 645.84 245.78 624.72 174.35 603.59 96.13 581.58 22.48 558.09 -41.76 533.38 -85.01 504.97 -103.79 471.22 -99.9 433.7 -72.68 388.23 -27.61 334.11 31.54 275.78 98.18 209.78 165.93 139.09 234.72 71.2 297.79 6.72 352.84 -47.32 403.29 -84.53 445.45 -100.88 480.28 -91.61 511.44 -59.35 537.94 -3.45 561.43 70.26 583.76 147.84 605.2 223.05 626.32 283.58 647.45 316.48 667.26 319.45 684.76 294.82 701.12 244.92 713.04 181.47 718.49 114.89 720.27 48.64 712.9 -4.47 695.01 -39.61 672.53 -58.59 639.78 -57.14 598.68 -38.44 558.62 -5.75 517.03 37.53 479.87 86.02 456.79 140.2 448.52 193.65 460.1 242.99 494.38 293.07 549.64 337.08 622.05 373.7 703.85 410.12 786.35 439.31 857.78 460.43Q857.78 460.43 857.78 460.43" opacity="0.12"></path><path d="M824.1 322.5C881.81 346.78 847.21 359.99 769.22 353.31 703.04 349.8 633.74 344.75 567 341.09 504.02 344.07 449.71 353.02 405.46 371.1 369.88 400.21 343.73 441.39 325.12 494.96 313.16 557.52 305.15 628.16 298.49 701.75 294.85 770.89 289.54 830.9 280.74 874.17 272.64 896.1 259.62 892.49 240.84 861.69 222.06 809 198.42 740.34 171.1 664.81 144.49 589.45 115.64 521.98 86.74 467.89 29.81 421.12 56.45 504.59 115.91 545.24 163.09 570.99 215.55 589.38 267.97 599.64 326.85 609 339.71 590.31 280.1 565.11 217.41 546.33 148.77 522.51 82.34 493.83 20.81 464.51 -26.2 429.23 -55.26 387.89 -67.77 345.09 -60.98 295.78 -37.76 241.08 -0.95 186.6 46.09 129.43 98.5 73.19 155.97 23.66 212.93 -18.36 266.29 -47.8 319.1 -61.94 366.29 -57.79 407.1 -33.35 446.26 6.96 479.76 63.75 507.86 131.86 535.29 200.14 558.45 265 577.23 317.69 596.01 348.49 609.52 355.91 617.5 341.22 624.83 305.19 625.48 255.87 618.87 200.49 610.61 140.67 594.34 86.87 570.46 43.86 546.05 9.84 516.05 -9.07 483.18 -13.56 455.39 -7.03 430.6 10.97 413.33 36.92 409.66 69.52 419.7 105.5 445.97 141.55 488.79 179.99 546.49 215.71 615.26 246.67 688.93 278.05 761.38 303.72 824.07 322.49Q824.1 322.5 824.1 322.5" opacity="0.09"></path><path d="M790.07 213.18C857.35 246.04 848.9 263.14 779.26 273.5 670.53 294.33 552.01 328.07 450.58 389.39 365.74 477.79 307.26 595.92 267.57 721.65 237.89 820.54 210.25 864.96 177.39 827.68 144.53 724.69 109.55 591.29 82.29 473.92 65.03 394.64 72.23 364.14 113.99 369.03 172.36 404.08 256.02 440.56 340.67 460.11 386.22 481.21 381.35 477.13 314.07 444.26 197.63 411.4 82.02 352.88 4.14 274.83 -30.58 198.33 -8.63 110.57 50.64 32.45 135.45 -15.5 224.97 -19.86 300.88 35.32 377.09 128.61 434.13 248.69 466.99 351.68 499.86 388.96 505.42 357.86 486.17 283.05 467.2 181.41 428.96 98.13 387.22 52.81 371.02 34.55 383.92 52.1 442.74 88.22 544.7 134.8 673.63 180.32 790.07 213.18Q790.07 213.18 790.07 213.18" opacity="0.22"></path><path d="M756.11 173.02C817.82 201.18 823.42 229.56 780.7 262.89 703.18 303.83 607.89 361.96 516.3 441.31 427.61 532.15 355.95 637.01 302.94 735.65 255.7 805.68 219 830.45 190.83 793.72 162.67 708.3 145.7 595.91 144.13 488.36 148.33 400.11 176.02 344.12 227.8 317.68 282.48 316.53 347.89 325.82 404.76 330.83 426.83 341.05 409.82 335.17 348.11 307.01 250 278.84 149.83 231.06 73.07 172.02 21.41 118.2 11.38 64.95 34.49 29.19 80.61 18.7 139.9 44.81 196.52 112.41 257.19 199.3 305.39 300.27 333.55 385.69 361.73 422.45 367.2 409.1 355.34 359.72 347.54 281.72 332.2 206.73 323 152.81 336.79 110.37 376.69 96.2 448.99 104.08 546.38 119.55 657.97 144.84 756.08 173.01Q756.11 173.02 756.11 173.02" opacity="0.11"></path><path d="M722.11 216.83C776.83 240.3 792.12 274.93 771.79 320.63 724.37 369.89 657.74 434.88 586.93 512.6 511.29 590.9 443.65 672.28 390.29 741.15 338.64 785.07 299.97 794.29 276.5 759.72 253.03 691.11 246.98 600.55 257.94 508.52 270.64 422.99 301.64 355.48 346.52 308.95 386.56 278.84 428.29 261.45 458.51 248.49 461.63 240.84 436.83 227.67 382.11 204.2 301.95 180.73 218.93 149.18 149.43 116.15 76.69 78.81 82.44 105.6 128.72 195.22 166.02 270.04 199.62 351.08 223.09 419.69 246.57 454.28 257.69 454.58 261.07 427.87 269.11 376.21 278.43 319.73 297.55 272.18 332.79 225.23 387.83 196.87 462.69 188.29 549.39 183.26 641.92 193.35 722.08 216.82Q722.11 216.83 722.11 216.83" opacity="0.27"></path><path d="M687.96 328.39C734.34 347.17 754.93 380.12 751.36 424.28 729.5 468.87 691.36 524.41 646.01 585.26 593.7 641.66 542.84 695.3 500.17 735.96 456.82 758.31 423.8 756.45 405.02 725.67 386.24 672.98 383.48 604.15 394.3 531.38 404.42 458.08 425.97 392.63 453.67 339.89 474.42 294.94 492.63 260.7 500.73 234.84 490.54 212.4 462.34 192.59 415.96 173.82 353.24 155.04 288.25 139.06 230.64 128.97 176.6 122.28 138.83 127.22 118.7 147.56 107.16 175.69 109.58 221.21 121.32 280.75 136.35 339.76 154.97 400.98 173.75 453.67 192.53 484.45 209.69 493.92 227.2 485.34 248 458.44 274.89 424.72 311.04 392.92 355.78 356.69 413.46 330.46 481.27 318.4 552.64 306.79 625.24 309.62 687.96 328.39Q687.96 328.39 687.96 328.39" opacity="0.53"></path><path d="M654.11 466.54C715.82 494.7 716.33 563.5 678.56 641.26 619.33 700.14 559.64 728.45 531.48 691.72 503.31 606.29 512 493.69 534.31 400.31 535.16 314.94 511.82 255.39 450.11 227.23 351.99 199.06 262.71 207.6 212.91 256.06 175.06 312.53 174.34 402.29 202.51 487.72 230.68 524.45 282.39 518.98 357.16 497.01 443.87 456.17 555.99 438.37 654.11 466.54Q654.11 466.54 654.11 466.54" opacity="0.40"></path><path d="M620.08 579.99C691.42 617.55 650.28 693.82 612.73 657.71 575.17 536.51 555.42 382.08 484.08 344.52 349.1 306.97 261.9 400.51 299.46 521.71 337.01 557.82 485.1 542.44 620.08 579.99Q620.08 579.99 620.08 579.99" opacity="0.10"></path></g></svg>