<svg xmlns="http://www.w3.org/2000/svg" version="1.1" xmlns:xlink="http://www.w3.org/1999/xlink" xmlns:svgjs="http://svgjs.dev/svgjs" viewBox="0 0 800 800"><defs><linearGradient x1="50%" y1="0%" x2="50%" y2="100%" id="ssspill-grad"><stop stop-color="hsl(184, 74%, 44%)" stop-opacity="1" offset="45%"></stop><stop stop-color="hsl(332, 87%, 70%)" stop-opacity="1" offset="100%"></stop></linearGradient><filter id="ssspot-filter" x="-20%" y="-20%" width="140%" height="140%" filterUnits="objectBoundingBox" primitiveUnits="userSpaceOnUse" color-interpolation-filters="sRGB">
	<feTurbulence type="turbulence" baseFrequency="0.022 0.218" numOctaves="2" seed="191" stitchTiles="stitch" x="0%" y="0%" width="100%" height="100%" result="turbulence"></feTurbulence>
	<feGaussianBlur stdDeviation="0 3" x="0%" y="0%" width="100%" height="100%" in="turbulence" edgeMode="duplicate" result="blur"></feGaussianBlur>
	<feDisplacementMap in="SourceGraphic" in2="blur" scale="32" xChannelSelector="R" yChannelSelector="B" x="0%" y="0%" width="100%" height="100%" result="displacementMap"></feDisplacementMap>
</filter></defs><rect width="100%" height="100%" fill="hsl(237, 38%, 34%)"></rect><g fill="url(#ssspill-grad)" filter="url(#ssspot-filter)"><circle r="5.615538879375299" cx="766.081235909898" cy="280.2178077780224" opacity="0.10346371088652122"></circle><circle r="5.963338019598983" cx="109.75282282250126" cy="214.60126885772775" opacity="0.6603143056217085"></circle><circle r="8.831380466219528" cx="206.8455248870865" cy="659.6202595471846" opacity="0.7434445899874871"></circle><circle r="6.524021853641621" cx="381.11779477938626" cy="59.19043073340368" opacity="0.911837833748381"></circle><circle r="3.716903131429236" cx="205.98284350231202" cy="423.27122275304015" opacity="0.3764186401587464"></circle><circle r="4.676902755282359" cx="729.0689989133798" cy="785.0907656728549" opacity="0.3111035977454717"></circle><circle r="6.162671978235074" cx="691.7065595037269" cy="653.7906883468332" opacity="0.773568565001176"></circle><circle r="5.571252521367941" cx="235.3422418267517" cy="419.36213415580124" opacity="0.9283413513277269"></circle><circle r="5.281884260785392" cx="368.2774913495409" cy="294.0787154643407" opacity="0.3326776179172158"></circle><circle r="7.072348644619035" cx="179.03814637518974" cy="553.8972951568334" opacity="0.6146957308633113"></circle><circle r="6.399651431203265" cx="504.8250924421441" cy="451.3507412991029" opacity="0.272436413816741"></circle><circle r="6.1381298634065775" cx="732.8730577244348" cy="672.5971563354549" opacity="0.6814947246491023"></circle><circle r="4.093245335912934" cx="9.570656575095192" cy="316.0465812764009" opacity="0.3250745343628969"></circle><circle r="3.5492010468024646" cx="638.6141714883503" cy="563.2191059200242" opacity="0.1957012541107797"></circle><circle r="5.407961100437765" cx="424.51829379034314" cy="39.19166533687501" opacity="0.8743443399100114"></circle><circle r="4.832912100818126" cx="784.9794413184449" cy="350.68103644271986" opacity="0.6495472685905832"></circle><circle r="7.09089211767068" cx="689.8318456874654" cy="776.7584891752492" opacity="0.34586671929603596"></circle><circle r="7.59100311361093" cx="507.03436268249936" cy="572.0418623110571" opacity="0.24274388624865975"></circle><circle r="4.300655865809945" cx="709.0325282599279" cy="680.4704214907248" opacity="0.9278750870042627"></circle><circle r="2.4777931097739327" cx="435.2342814176608" cy="57.90042248292149" opacity="0.7653881806005939"></circle><circle r="6.823857532906423" cx="715.3074268023821" cy="712.5108786635843" opacity="0.6171600064573365"></circle><circle r="5.557004192710556" cx="46.352480946824315" cy="154.0015287782161" opacity="0.9480619031852784"></circle><circle r="8.26186156673214" cx="771.0091978406869" cy="565.3952396599963" opacity="0.8880701649380788"></circle><circle r="4.019052178899859" cx="612.2010923506795" cy="567.4289240443849" opacity="0.33333444405484447"></circle><circle r="5.766687491194983" cx="32.39453973395881" cy="313.17621903959156" opacity="0.9012238984169636"></circle><circle r="6.617615843879358" cx="589.3169084849347" cy="525.6192982150502" opacity="0.2399524323990679"></circle><circle r="7.248767166049495" cx="266.23331600726493" cy="437.7380730688224" opacity="0.950251246452197"></circle><circle r="4.008100284731177" cx="154.03369649495755" cy="278.7819300896709" opacity="0.40275582872104"></circle><circle r="4.599119910156894" cx="649.6023530886865" cy="137.78540388604856" opacity="0.5551975335485393"></circle><circle r="6.354828774742412" cx="620.4971889488246" cy="678.1193824766636" opacity="0.826359114617901"></circle><circle r="4.176572848896254" cx="10.084271834947149" cy="605.9592142835373" opacity="0.22323573019234216"></circle><circle r="6.218381283308896" cx="144.93751537956345" cy="351.1229355636989" opacity="0.9173869728152915"></circle><circle r="5.533900320139452" cx="61.586242882716995" cy="721.5758462882782" opacity="0.5797597095249837"></circle><circle r="3.5435158271728886" cx="126.26467959359732" cy="468.5855380560491" opacity="0.47114740959793544"></circle><circle r="8.03045860198262" cx="147.75517878965252" cy="95.95839400965986" opacity="0.7150358929649451"></circle><circle r="5.532915732598817" cx="259.16299507988384" cy="306.4650285406902" opacity="0.10539211220297733"></circle><circle r="7.047613565214835" cx="664.8174490139536" cy="261.2216550124006" opacity="0.893621764618366"></circle><circle r="3.2686674243198124" cx="639.6137418017693" cy="317.84073509034823" opacity="0.5351457447839217"></circle><circle r="6.947723519535908" cx="534.4974960045868" cy="595.2029275325008" opacity="0.8772617837289555"></circle><circle r="5.066151806182542" cx="217.21244745962542" cy="265.6450028357735" opacity="0.25282739816108735"></circle><circle r="6.121365147951111" cx="13.669098509835903" cy="675.9651590584884" opacity="0.8097642760965063"></circle><circle r="4.637942076648109" cx="145.4655880512526" cy="502.7780010423773" opacity="0.42652178713609756"></circle><circle r="5.326949001816139" cx="744.3482787524734" cy="540.2669860540295" opacity="0.751271767811825"></circle><circle r="4.472316351620033" cx="310.14551035308165" cy="714.6029904280505" opacity="0.8335198306142817"></circle><circle r="6.699945442821747" cx="566.5637137058326" cy="557.0780766081331" opacity="0.10230088884409162"></circle><circle r="8.850666919480982" cx="342.26790575727966" cy="568.27491948955" opacity="0.1416055638536319"></circle><circle r="3.184001483573944" cx="388.00671333166906" cy="786.6617457326322" opacity="0.818342033281026"></circle><circle r="4.258229385878187" cx="438.6824417640016" cy="221.45895504908557" opacity="0.21248872756161208"></circle><circle r="2.8982173222645162" cx="438.51672381263825" cy="791.5131272356334" opacity="0.2114537971959642"></circle><circle r="4.591530352330856" cx="99.31401672588002" cy="315.0847871604391" opacity="0.8597646745163279"></circle><circle r="5.733615638236433" cx="464.1692470010694" cy="12.974326722250149" opacity="0.8690722338616196"></circle><circle r="6.118570263595868" cx="542.6950681897837" cy="515.6634591426413" opacity="0.5769890150167207"></circle><circle r="3.0387485902847233" cx="790.0333816816346" cy="269.1636397896026" opacity="0.8051914113193473"></circle><circle r="6.633958428725688" cx="667.9636767927689" cy="573.1147953488799" opacity="0.17251606273634984"></circle><circle r="4.832111632845673" cx="524.7545238275138" cy="37.439656400794135" opacity="0.21321242321505957"></circle><circle r="4.92987081925183" cx="690.8064786375801" cy="270.6015711768497" opacity="0.7725130307066156"></circle><circle r="5.197593892236527" cx="342.9615317419147" cy="717.7389797848579" opacity="0.8746706000747339"></circle><circle r="4.723466017221168" cx="399.6943774503091" cy="31.690755708316374" opacity="0.4967154497185423"></circle><circle r="4.261130663625834" cx="356.04484836125096" cy="746.4563652270456" opacity="0.8703581436501602"></circle><circle r="6.554827435393137" cx="251.41885346672478" cy="473.61322621210104" opacity="0.682265162474762"></circle><circle r="7.226467269615643" cx="297.60164486420047" cy="153.79371859571285" opacity="0.9662844759894903"></circle><circle r="5.347034466361471" cx="512.6521308216649" cy="69.30023528128314" opacity="0.35770318089165554"></circle><circle r="4.171314687516228" cx="647.9962547627536" cy="788.6664867892154" opacity="0.3271091723278949"></circle><circle r="4.0910136361979665" cx="281.5478139801856" cy="71.78395392745868" opacity="0.43390586428658806"></circle><circle r="5.527553697381857" cx="551.5582303604306" cy="92.30123719396786" opacity="0.6062938162842301"></circle><circle r="6.111118541769448" cx="112.26561201404067" cy="83.25659181533464" opacity="0.6420996614724034"></circle><circle r="5.017961207672228" cx="74.16587810816792" cy="396.0927374510834" opacity="0.16309718830003722"></circle><circle r="4.98782350040968" cx="18.949682381877942" cy="787.1882516520391" opacity="0.18134675371143485"></circle><circle r="5.9141982821751125" cx="657.1764967146066" cy="207.7632352855248" opacity="0.6799389888454729"></circle><circle r="10.631598669195782" cx="289.77695247987606" cy="551.8677782024727" opacity="0.672942282561197"></circle><circle r="5.297325447642029" cx="336.9207647312882" cy="337.3644465906025" opacity="0.7860638402306855"></circle><circle r="4.967339833615683" cx="789.4627529377844" cy="145.79518927185416" opacity="0.2528226167397245"></circle><circle r="4.065095962633196" cx="444.81369138405" cy="428.7060938011499" opacity="0.2969135379360723"></circle><circle r="4.750104561884888" cx="614.1485935564629" cy="715.2838412296278" opacity="0.43744308163992485"></circle><circle r="5.750047731540585" cx="355.0289780407887" cy="360.7137232016525" opacity="0.5503175696414739"></circle><circle r="5.138103126922768" cx="346.8936133427003" cy="41.72763310806025" opacity="0.2534218668350763"></circle><circle r="4.209694450138945" cx="253.10902798568563" cy="235.26188988735822" opacity="0.5206444325521636"></circle><circle r="5.113508532412652" cx="460.20906203962465" cy="191.59099140676443" opacity="0.7546937650726618"></circle><circle r="4.034896759227763" cx="244.84989468371344" cy="393.6992208952494" opacity="0.7871957054970081"></circle><circle r="2.8670531122932226" cx="698.742084702633" cy="10.298381235197118" opacity="0.33532619040302625"></circle><circle r="5.104281691043425" cx="524.4411895149996" cy="385.41294401053557" opacity="0.8526419639961402"></circle><circle r="6.670491839150628" cx="491.2227453102468" cy="781.7920208182253" opacity="0.512869845217129"></circle><circle r="4.395332281508036" cx="25.581254221482165" cy="762.888863878365" opacity="0.9476171226753285"></circle><circle r="2.6866541375615447" cx="415.9030925956804" cy="77.04341206297063" opacity="0.6750544550500002"></circle><circle r="5.337352869772118" cx="324.56442879736693" cy="739.0725332306821" opacity="0.39810980309834865"></circle><circle r="5.449750346591058" cx="220.5957555001458" cy="229.39569197956408" opacity="0.9710186220202541"></circle><circle r="8.154709097456365" cx="524.6918313757435" cy="156.16801366105867" opacity="0.6142143378165905"></circle><circle r="4.864066431605113" cx="62.392892078757015" cy="15.816649280456517" opacity="0.13307850122367187"></circle><circle r="3.4884787083535613" cx="95.77580433452268" cy="284.9436265882411" opacity="0.6386679965703604"></circle><circle r="4.540233833554615" cx="671.3394344446209" cy="495.42176276487754" opacity="0.6488121902614797"></circle><circle r="2.618270574006277" cx="408.52016688315615" cy="59.0384107775723" opacity="0.4724051790978059"></circle><circle r="6.179189351321334" cx="606.0078552089954" cy="402.02511551906645" opacity="0.8159515957088334"></circle><circle r="6.197689207393301" cx="73.57229957868121" cy="637.676118052501" opacity="0.9234718590712359"></circle><circle r="6.407497784574833" cx="64.74112467273494" cy="535.6790232932927" opacity="0.5812572590793834"></circle><circle r="5.978045063648515" cx="501.3327152284131" cy="654.528162009006" opacity="0.3954381543670722"></circle><circle r="3.485832244134132" cx="619.3009458562695" cy="595.4558043507741" opacity="0.8486895467876046"></circle><circle r="7.548568306889391" cx="777.1924339264613" cy="777.4869435452028" opacity="0.72036918588975"></circle><circle r="6.26306035223257" cx="223.25982375972148" cy="316.97449270831964" opacity="0.1435444426522149"></circle><circle r="6.277374886706116" cx="708.5854816386097" cy="212.29991965582792" opacity="0.7713791053737624"></circle><circle r="4.262717792542244" cx="427.9060015209888" cy="771.3443732055465" opacity="0.597710634255476"></circle><circle r="8.66690327512958" cx="44.66184364153622" cy="202.77647386857853" opacity="0.7237444451626461"></circle><circle r="3.8142784122742333" cx="229.3724505922421" cy="450.279626691232" opacity="0.7654933284214384"></circle><circle r="7.361009453734209" cx="173.33162503804527" cy="669.4970001603125" opacity="0.9890880303018084"></circle><circle r="4.596339044179514" cx="452.972432758707" cy="401.7030478233512" opacity="0.41677205557730745"></circle><circle r="4.207175172981862" cx="739.1295957877952" cy="648.0877373535545" opacity="0.39968258996751926"></circle><circle r="4.388137149134347" cx="418.31613413092145" cy="195.38172440017357" opacity="0.5628310789050346"></circle><circle r="4.6289189350925275" cx="253.10773970221283" cy="365.15172015657635" opacity="0.5998441255801409"></circle><circle r="9.826469854969373" cx="167.43640065922955" cy="152.25897297022078" opacity="0.3795849495604633"></circle><circle r="4.972698118898574" cx="352.2511457674945" cy="66.8567444670106" opacity="0.32408910977783556"></circle><circle r="3.9363660113355188" cx="560.4073043513356" cy="270.5980877083592" opacity="0.15906470903220513"></circle><circle r="5.393546870849461" cx="186.290588489834" cy="230.65494542271517" opacity="0.5639666277232106"></circle><circle r="7.28566056679258" cx="308.8602472719773" cy="190.07287619245415" opacity="0.44008119624004494"></circle><circle r="6.550764285003494" cx="332.22408863938836" cy="100.50419056291413" opacity="0.6673982840005591"></circle><circle r="6.043003991055791" cx="126.44200083104414" cy="128.66184060664955" opacity="0.9694615877764652"></circle><circle r="5.709271006804554" cx="559.5139264613675" cy="166.7953583352694" opacity="0.2391329855750801"></circle><circle r="6.409602848429447" cx="718.898576570691" cy="345.1183589749334" opacity="0.6984025584103593"></circle><circle r="6.975514538814964" cx="612.8909024339143" cy="113.51612307895259" opacity="0.8290566157993889"></circle><circle r="6.681383084167042" cx="114.36338883169472" cy="50.48229651561585" opacity="0.14755316843631922"></circle><circle r="3.4491263714328473" cx="435.9384943455836" cy="82.65287347518186" opacity="0.4503050236198477"></circle><circle r="9.38903719051099" cx="330.60250589308043" cy="611.6525968068503" opacity="0.10488294250412973"></circle><circle r="3.899546306124395" cx="49.277694395488716" cy="372.49476242110865" opacity="0.4953531052271538"></circle><circle r="4.548680563418613" cx="427.23104972113265" cy="386.14391821665555" opacity="0.4851269568838509"></circle><circle r="3.7177186611895827" cx="270.1474816011945" cy="753.6707528853925" opacity="0.9259219407428572"></circle><circle r="5.784636135827858" cx="580.6619316740108" cy="427.9825621739862" opacity="0.7002974204076295"></circle><circle r="7.819198905923473" cx="332.1753647148295" cy="252.7410112990752" opacity="0.6362030020265771"></circle><circle r="4.823389729878765" cx="108.97189877737235" cy="373.9850115067187" opacity="0.14191588316889503"></circle><circle r="6.330324880763188" cx="738.3006155999001" cy="313.81399501885596" opacity="0.7023710345840645"></circle><circle r="4.435968752413693" cx="372.6559139124666" cy="705.480568514585" opacity="0.22315090851805852"></circle><circle r="3.1196079252780025" cx="201.61348059511752" cy="447.0816097061744" opacity="0.7822385332632644"></circle><circle r="5.080941463070153" cx="305.37635313694705" cy="785.2618979189858" opacity="0.7620469620986723"></circle><circle r="4.526342030525499" cx="412.96389672529006" cy="435.8858332416143" opacity="0.27214759289230284"></circle><circle r="6.068846553807519" cx="578.9856201260319" cy="690.5890197183708" opacity="0.4035681509587219"></circle><circle r="2.949352626675455" cx="769.1343103533217" cy="138.88268994142467" opacity="0.2910218468714655"></circle><circle r="4.2777348400678195" cx="160.1152897307084" cy="242.15415021744118" opacity="0.7566387421534503"></circle><circle r="2.9701994537336995" cx="789.5522318489326" cy="387.33369690708406" opacity="0.5189876884808837"></circle><circle r="6.423742160606951" cx="542.4003130585559" cy="699.4259329487114" opacity="0.8775151650770491"></circle><circle r="7.7495867895227875" cx="529.5258145968276" cy="546.4425675173286" opacity="0.7146223200547489"></circle><circle r="7.9138358101241435" cx="59.78953934745285" cy="783.7782035306993" opacity="0.42626712965051694"></circle><circle r="4.742687148232371" cx="342.43143715907837" cy="684.625156404151" opacity="0.8192918819866816"></circle><circle r="3.818578234989168" cx="281.4970366184624" cy="261.96777029579664" opacity="0.32428615590650584"></circle><circle r="5.739243255745651" cx="759.9837451328065" cy="603.2796264026092" opacity="0.8642392178170789"></circle><circle r="6.997750173785338" cx="483.4994426549764" cy="533.1201045387986" opacity="0.7790455205702288"></circle><circle r="5.671942493316484" cx="582.5204126387067" cy="210.5307082969211" opacity="0.22856157868538723"></circle><circle r="7.530117267453134" cx="359.90564280171304" cy="649.7788902575738" opacity="0.5633228612143023"></circle><circle r="7.020550747750822" cx="157.48118268353477" cy="785.6502585961481" opacity="0.16926423756282788"></circle><circle r="4.883122156810349" cx="747.1421156672975" cy="701.2859260950755" opacity="0.4025115943211014"></circle><circle r="3.4386657859892393" cx="279.1082672901058" cy="680.6445667725313" opacity="0.9341252975373501"></circle><circle r="4.289114856201694" cx="574.6619514338222" cy="246.7099111089608" opacity="0.49217385808875735"></circle><circle r="5.718506779826804" cx="70.43781580340632" cy="570.6941384872565" opacity="0.8928993623325076"></circle><circle r="6.038672536508146" cx="538.0768822050821" cy="190.34570594528472" opacity="0.5465614128291092"></circle><circle r="8.227327777695015" cx="607.159164890548" cy="643.9284834685997" opacity="0.778730995363343"></circle><circle r="5.512326480919928" cx="752.2459327839796" cy="340.71103287196553" opacity="0.618378192135181"></circle><circle r="5.343298682852584" cx="224.8791718348368" cy="378.3990257934415" opacity="0.8680435446267646"></circle><circle r="6.415153430311943" cx="582.8277352381602" cy="295.4784886884428" opacity="0.7930279086659275"></circle><circle r="9.145900878691428" cx="558.5050322997345" cy="20.735231640268445" opacity="0.47276763130060295"></circle><circle r="6.746247365279519" cx="401.812648178906" cy="323.02250401849676" opacity="0.754436176171633"></circle><circle r="4.838952580961445" cx="784.4921546066574" cy="525.8152501138594" opacity="0.523306153896692"></circle><circle r="6.54823862420082" cx="582.4534549457034" cy="623.5808905925467" opacity="0.793218679666409"></circle><circle r="4.827439112977933" cx="625.194103191538" cy="330.4800490137371" opacity="0.9500546732365279"></circle><circle r="5.102206590815085" cx="570.8190033755474" cy="57.63902513031351" opacity="0.33091781926028047"></circle><circle r="6.700853458441439" cx="516.4488248675295" cy="113.99240017204973" opacity="0.6846917215174171"></circle><circle r="3.5609752927483362" cx="64.87359348020787" cy="359.3935737975406" opacity="0.7574240082347391"></circle><circle r="4.966653550886701" cx="687.1820744562011" cy="337.7802646404335" opacity="0.7099705227899462"></circle><circle r="4.741748396978748" cx="64.68860107014747" cy="698.3391114184246" opacity="0.10830527427722468"></circle><circle r="5.127455962262133" cx="743.139667847329" cy="37.19861663771944" opacity="0.33408301733585277"></circle><circle r="4.0016430502107285" cx="78.57304108146913" cy="341.45246784772655" opacity="0.3514993332261359"></circle><circle r="5.494515883241469" cx="419.0279182466985" cy="413.0224231995748" opacity="0.22291022372023298"></circle><circle r="3.347124451787519" cx="628.1506555940075" cy="50.87479548407479" opacity="0.2760573736526013"></circle><circle r="7.378815981286127" cx="15.462866201390597" cy="638.2285678039848" opacity="0.5838142507573763"></circle><circle r="3.995894685877613" cx="361.6284008776393" cy="782.2835104615783" opacity="0.7471608102990189"></circle><circle r="4.204428581202103" cx="749.3359812091679" cy="468.6675991725734" opacity="0.7261550589730549"></circle><circle r="9.583757764622113" cx="248.01575195775453" cy="590.9601288851284" opacity="0.28312989287319157"></circle><circle r="5.10680452606891" cx="382.99299205978" cy="10.59620381083365" opacity="0.788825428849415"></circle><circle r="5.922545646181727" cx="103.54247714336903" cy="487.46622506746104" opacity="0.43894030744316126"></circle><circle r="5.693242613256659" cx="210.9124759626563" cy="152.89145742243576" opacity="0.6657778820424847"></circle><circle r="5.056150868847396" cx="661.9478675883303" cy="11.605310836424671" opacity="0.7421747315881273"></circle><circle r="5.057097576550723" cx="713.9791703073537" cy="550.877733753096" opacity="0.9591415994381465"></circle><circle r="3.845537425877662" cx="282.49652649264567" cy="216.66912714666856" opacity="0.28609281593946234"></circle><circle r="9.384563498643622" cx="193.843340370582" cy="67.72985025581761" opacity="0.8654948935219684"></circle><circle r="5.757336092407769" cx="423.2249161060479" cy="103.34030738712104" opacity="0.2837072690661231"></circle><circle r="5.975612507299154" cx="785.9311461628497" cy="702.8597721238133" opacity="0.10224002429969396"></circle><circle r="5.04796292229201" cx="764.3280382677947" cy="373.792385801397" opacity="0.887416243393415"></circle><circle r="6.724441719076232" cx="603.7502832873979" cy="264.6254863555617" opacity="0.5335462409255151"></circle><circle r="4.383549281377721" cx="641.2518507934924" cy="764.2749849202304" opacity="0.5928090691404437"></circle><circle r="5.413270554375567" cx="467.13295580733" cy="294.0333083015081" opacity="0.9887365329067296"></circle><circle r="5.475555958488835" cx="478.92050165048147" cy="384.9209209392767" opacity="0.7000160152383572"></circle><circle r="5.155023188578953" cx="662.400054522333" cy="382.96673681376194" opacity="0.35364365599789715"></circle><circle r="5.243293341904936" cx="714.7023195021472" cy="103.58203839981172" opacity="0.6261476382064646"></circle><circle r="5.333870629934116" cx="721.8645716969343" cy="249.26342589286858" opacity="0.16603866670272904"></circle><circle r="5.916441312703906" cx="505.9165357737905" cy="288.07681046112367" opacity="0.12693558562087165"></circle><circle r="4.3780554831853875" cx="735.3395629854198" cy="375.78035192728544" opacity="0.16084293597719232"></circle><circle r="3.7040438193372935" cx="508.6173183805044" cy="238.66305094367246" opacity="0.7094124644687532"></circle><circle r="6.799821455462737" cx="484.1768942839721" cy="329.29129819120334" opacity="0.6767017944767819"></circle><circle r="9.435405549505433" cx="197.8489157255481" cy="777.0854995203069" opacity="0.6502451338884757"></circle><circle r="5.068283160754556" cx="629.8240448676551" cy="370.2263188205363" opacity="0.9063364133876805"></circle><circle r="5.337555127623963" cx="153.7172323997604" cy="577.5337848183744" opacity="0.549395618584367"></circle><circle r="4.304617898050347" cx="14.97225296554342" cy="744.089649630607" opacity="0.2472050624221519"></circle><circle r="3.5565023690417634" cx="544.6311113758393" cy="370.62536452212737" opacity="0.3251525558638959"></circle><circle r="4.732106998620788" cx="238.5403439661515" cy="754.5949108131123" opacity="0.19768590663830093"></circle><circle r="5.648649492896847" cx="65.60243610346492" cy="295.051860397751" opacity="0.18046157882702146"></circle><circle r="4.817290645222707" cx="363.66138621454655" cy="89.68712678041945" opacity="0.3502482534051524"></circle><circle r="4.9892419025077155" cx="174.97795557251257" cy="520.0269452676529" opacity="0.2427634869463043"></circle><circle r="4.128315860556608" cx="661.999578028217" cy="357.37419551691517" opacity="0.16215117987470154"></circle><circle r="6.654000883017167" cx="160.47401822887954" cy="747.9888531055984" opacity="0.8025630384779205"></circle><circle r="5.953543537537959" cx="218.52677619548362" cy="621.7712751160151" opacity="0.8192066749476922"></circle><circle r="6.567701731787196" cx="560.6838864498225" cy="455.78416019447843" opacity="0.5522213894933173"></circle><circle r="10.83438405003561" cx="222.10933542181587" cy="27.171300699720796" opacity="0.6002738228085317"></circle><circle r="5.619374379782883" cx="80.04572241718921" cy="72.90256083048929" opacity="0.48443445046803"></circle><circle r="5.596398389972885" cx="235.30596896467813" cy="784.7773070728186" opacity="0.23536903106683849"></circle><circle r="5.395586390463939" cx="438.85915043148884" cy="544.3077201954336" opacity="0.38268543651161935"></circle><circle r="4.147579098427343" cx="118.91341956708844" cy="513.08298466312" opacity="0.8070536887533828"></circle><circle r="4.6464993223564175" cx="44.42931505126932" cy="336.7993578147152" opacity="0.9714160071271626"></circle><circle r="3.8570339661598734" cx="675.9804936712778" cy="403.1437312713179" opacity="0.7369199964127561"></circle><circle r="7.010707187186861" cx="203.45664638302475" cy="295.83427990730127" opacity="0.6692343873866652"></circle><circle r="6.073703311949981" cx="12.114529169181548" cy="374.1369213374513" opacity="0.43310183509702016"></circle><circle r="4.905665402075665" cx="486.2909681613404" cy="57.93960203333037" opacity="0.6776526705662131"></circle><circle r="2.6654928867226015" cx="450.1230163521263" cy="61.869526482224906" opacity="0.8678812096121716"></circle><circle r="5.238183279397896" cx="659.2687516080683" cy="67.28274706087521" opacity="0.1826037998346369"></circle><circle r="4.053768187011291" cx="295.7997991165427" cy="748.2301298936165" opacity="0.47160135463160235"></circle><circle r="5.37763242010767" cx="83.42830476527527" cy="154.58572095581474" opacity="0.9527205574953983"></circle><circle r="9.607646705506674" cx="380.54816717799616" cy="608.1830348278323" opacity="0.2817939831407673"></circle><circle r="6.856616225805812" cx="682.385433408378" cy="40.67174959849284" opacity="0.18722968771228515"></circle><circle r="5.236105522674359" cx="720.145772570039" cy="466.768896759402" opacity="0.4125020368020669"></circle><circle r="4.885017278716405" cx="739.7574251467057" cy="120.94073706286414" opacity="0.48431760636417287"></circle><circle r="4.563587323807155" cx="282.9671012854121" cy="383.9661907274724" opacity="0.2646312984521426"></circle><circle r="6.5191782020696785" cx="528.3581249570718" cy="783.97763328128" opacity="0.7504142066476808"></circle><circle r="7.925916812835297" cx="388.49162332790763" cy="363.2743907469547" opacity="0.11859451127213325"></circle><circle r="3.5623305496844213" cx="718.078416181766" cy="274.9363068971884" opacity="0.4119571122880554"></circle><circle r="4.486015722960609" cx="38.712924433704806" cy="523.3648276612824" opacity="0.32426736072512174"></circle><circle r="2.5115247663048548" cx="711.479282409336" cy="393.75275428808754" opacity="0.6911954764478191"></circle><circle r="3.140430260166899" cx="726.4912212194528" cy="404.30536541710717" opacity="0.46771711302021823"></circle><circle r="5.386972004643085" cx="592.5747957085119" cy="459.1471485279099" opacity="0.31081048164230207"></circle><circle r="8.123372169683574" cx="691.7238328488042" cy="173.0780755713181" opacity="0.2891387773427925"></circle><circle r="7.62585679890838" cx="591.3997958576385" cy="86.31098035232009" opacity="0.12626375560346087"></circle><circle r="4.257606295095057" cx="482.87668851736765" cy="123.79031751362608" opacity="0.44343871948934654"></circle><circle r="5.658819840877405" cx="441.07812522480424" cy="128.66284644283152" opacity="0.47014984796879844"></circle><circle r="6.200765810166206" cx="585.4616216567432" cy="492.00620668691505" opacity="0.8555129851744399"></circle><circle r="9.738727291981672" cx="405.6697646407457" cy="653.2924553138978" opacity="0.38424446401776247"></circle><circle r="5.906516008822524" cx="438.525278813841" cy="174.844959759029" opacity="0.7843368008198802"></circle><circle r="6.819427981407431" cx="563.7858197254643" cy="318.90546953405516" opacity="0.30955134313257643"></circle><circle r="3.842729714982074" cx="129.57273592646112" cy="305.9301954121151" opacity="0.31133645766394713"></circle><circle r="4.702109618205293" cx="257.0114667343839" cy="723.8302945230166" opacity="0.22735961946847194"></circle><circle r="5.419996871440413" cx="693.5684163603399" cy="134.61645334928696" opacity="0.40849468856755755"></circle><circle r="4.062390768007303" cx="790.5974028971376" cy="667.153133604941" opacity="0.567202161626241"></circle><circle r="5.30177146090282" cx="708.561503358663" cy="32.033118448289144" opacity="0.8575872887412915"></circle><circle r="8.893158033619713" cx="269.1014318140341" cy="28.5563064346568" opacity="0.6871912787961979"></circle><circle r="3.858156274726745" cx="378.04666284834025" cy="272.91769354863703" opacity="0.23022973285598264"></circle><circle r="6.265518606483276" cx="415.01229347745874" cy="296.12713379071454" opacity="0.3210966974919664"></circle><circle r="4.941494547256994" cx="185.6544037890625" cy="623.7942264131079" opacity="0.2165633333481609"></circle><circle r="9.495088189122594" cx="662.2958337747984" cy="721.8521611383525" opacity="0.9218207295578481"></circle><circle r="3.849750131334098" cx="492.15609621020417" cy="30.788243431274378" opacity="0.8054323790023654"></circle><circle r="5.784672837901483" cx="358.46014593461496" cy="203.45624772967085" opacity="0.8784313499581893"></circle><circle r="5.765809959790794" cx="774.8854333573918" cy="734.1640759362754" opacity="0.43235087546458706"></circle><circle r="5.180955854277466" cx="122.63911825938021" cy="246.22086030047618" opacity="0.9442827372322405"></circle><circle r="5.582766431495836" cx="127.82072567737774" cy="756.6151282919341" opacity="0.7679841493473922"></circle><circle r="4.147084491627796" cx="296.96450338121093" cy="346.3532034257662" opacity="0.20110914468610197"></circle><circle r="4.678415417230929" cx="140.43563897258198" cy="545.7990296686155" opacity="0.9819201398194377"></circle><circle r="3.7695667730314746" cx="592.657161590945" cy="563.6496010555603" opacity="0.9165291884775667"></circle><circle r="4.121326452521053" cx="474.9248110071379" cy="84.7524946873486" opacity="0.845235392411047"></circle><circle r="3.5657515394114165" cx="124.07403949510993" cy="286.59874679910405" opacity="0.19472043360491606"></circle><circle r="4.59402699107433" cx="51.443076683761895" cy="81.32583514530026" opacity="0.24293548844913587"></circle><circle r="6.377243935396921" cx="766.9157244336411" cy="404.87775047722863" opacity="0.8507162853215456"></circle><circle r="7.2377358213629766" cx="394.3357193989309" cy="398.72146126849185" opacity="0.10691368269699512"></circle><circle r="3.488955119638922" cx="749.1341732804633" cy="630.2377773941729" opacity="0.17441587725429863"></circle><circle r="4.428375588910532" cx="99.685439576538" cy="528.5663675347603" opacity="0.1865300485641628"></circle><circle r="3.9461978888893894" cx="660.7162448292726" cy="326.4562160117871" opacity="0.6822047873673629"></circle><circle r="3.3612857142213306" cx="419.58049017766984" cy="240.55681388651604" opacity="0.9653288515621044"></circle><circle r="8.335259703141087" cx="365.4150889566001" cy="239.2819674735167" opacity="0.5254342225070834"></circle><circle r="6.337709042075629" cx="482.76862474989" cy="596.8930797025897" opacity="0.3640558228099743"></circle><circle r="4.801918937031287" cx="80.63459911196678" cy="230.34852005598307" opacity="0.8322683610295969"></circle><circle r="4.326114157260882" cx="440.6450921258739" cy="517.4096345413943" opacity="0.6014209037304764"></circle><circle r="4.52696357072724" cx="86.85893288678669" cy="681.300655016054" opacity="0.18544744767128968"></circle><circle r="7.404475539962544" cx="17.12833535993731" cy="81.45563062754489" opacity="0.5148277496157788"></circle><circle r="10.273376773145364" cx="403.4502933105336" cy="500.47469717730394" opacity="0.18980959840960432"></circle><circle r="5.170845516723243" cx="497.1106361436092" cy="91.99041491632202" opacity="0.8718208227858776"></circle><circle r="5.755925507988189" cx="671.5564933252244" cy="641.1150655949406" opacity="0.18314754356363283"></circle><circle r="4.847630673882647" cx="173.75104427987142" cy="295.51788465623054" opacity="0.5797486925090467"></circle><circle r="4.755908775542307" cx="117.42206182942235" cy="573.1376490992128" opacity="0.9259083203987956"></circle><circle r="5.722791778274711" cx="263.40769673732" cy="698.0250833948387" opacity="0.8241606068303287"></circle><circle r="6.655154296571215" cx="184.90832008972578" cy="107.8971644290383" opacity="0.33679161276334135"></circle><circle r="4.144859901613524" cx="245.4617565577597" cy="286.63809905632417" opacity="0.5197007722686594"></circle><circle r="3.823139190393581" cx="716.1155029018468" cy="424.58720782138283" opacity="0.653433515469897"></circle><circle r="4.729827259668156" cx="536.1159996198285" cy="338.72927827165427" opacity="0.3537418792098782"></circle><circle r="6.762825516820278" cx="611.8660755613228" cy="299.1275210561297" opacity="0.24487407565514882"></circle><circle r="5.049097076527981" cx="232.68145294648792" cy="690.1677244807067" opacity="0.26994371930842564"></circle><circle r="6.04976282116239" cx="461.4169448716951" cy="153.44659402935397" opacity="0.8774300740013901"></circle><circle r="3.7617213243780077" cx="236.76936512451903" cy="342.39456777413466" opacity="0.33314818479323943"></circle><circle r="3.538979447616704" cx="271.3772825301665" cy="408.76913278086766" opacity="0.7136205478746085"></circle><circle r="3.620815705699886" cx="727.4097670216529" cy="10.7525371622995" opacity="0.8455983752861171"></circle><circle r="9.043450123544316" cx="195.55326810765104" cy="193.68740457037902" opacity="0.368086191944869"></circle><circle r="5.065621170191868" cx="373.15355796616234" cy="329.9160979956964" opacity="0.8662612737462149"></circle><circle r="3.3609260751679493" cx="293.78951239347055" cy="242.07937026045744" opacity="0.7852187882330995"></circle><circle r="5.705387971847016" cx="625.8187628757049" cy="434.20352239370357" opacity="0.34448277314301345"></circle><circle r="10.537522675297243" cx="22.60639427318535" cy="481.2946497781873" opacity="0.5793927251714613"></circle><circle r="3.912144519930913" cx="465.5900534208592" cy="60.62284708608877" opacity="0.7524677984446455"></circle><circle r="5.974789734789657" cx="523.7684850104193" cy="314.56760608105867" opacity="0.34771030531945335"></circle><circle r="3.4437985004851175" cx="281.6950770957122" cy="658.4133044290076" opacity="0.17687426440712128"></circle><circle r="3.8809215283344063" cx="696.911526963644" cy="525.4743474471696" opacity="0.958056443982013"></circle><circle r="7.31576279986874" cx="139.29649647439462" cy="23.658669633702335" opacity="0.7267836579048988"></circle><circle r="7.2339457443364505" cx="176.21925842165538" cy="19.09489541563219" opacity="0.4377193038632431"></circle><circle r="4.050802422457876" cx="140.7214814889921" cy="523.995707383028" opacity="0.5135977950908878"></circle><circle r="5.333598511888564" cx="211.3179258678938" cy="350.47949187839595" opacity="0.6783734308460947"></circle><circle r="5.592379538450294" cx="62.937946584617805" cy="747.1908007620347" opacity="0.7355402073243762"></circle><circle r="6.607050951778279" cx="530.9935950678272" cy="257.58054496483624" opacity="0.34483915472385096"></circle><circle r="4.411461048389827" cx="133.68062122155092" cy="651.567898033265" opacity="0.569404344346991"></circle><circle r="5.3661654581862805" cx="394.260142735357" cy="215.00842156963444" opacity="0.31437627855223826"></circle><circle r="3.9851720720857258" cx="134.92729839436007" cy="391.751713282286" opacity="0.7669992321058616"></circle><circle r="7.8244475324334495" cx="420.50671445817557" cy="355.20015661833446" opacity="0.17274910222193235"></circle><circle r="5.7474721837118015" cx="625.747479787787" cy="476.23624077749616" opacity="0.4107865863788639"></circle><circle r="6.5341294563301675" cx="630.419449800161" cy="620.8452212584034" opacity="0.7921255059610812"></circle><circle r="6.285468871015681" cx="327.8914138241536" cy="462.61357521332496" opacity="0.8447779582267598"></circle><circle r="4.823538514004612" cx="744.2379698890784" cy="286.0364334797384" opacity="0.26633456105452713"></circle><circle r="7.368955924455204" cx="397.0667433178134" cy="122.1847423829687" opacity="0.33098211270564126"></circle><circle r="7.274505503177005" cx="319.87275244920477" cy="221.59876452761026" opacity="0.277139957744871"></circle><circle r="5.982827255480659" cx="346.1246802802777" cy="311.93282023298747" opacity="0.3578265593755713"></circle><circle r="6.058689206093028" cx="439.7366447029414" cy="722.7234032976695" opacity="0.9473044654833025"></circle><circle r="3.8517793102318914" cx="646.3629109991401" cy="504.6162333799881" opacity="0.6801459632652979"></circle><circle r="8.870429108604464" cx="362.6520960707993" cy="527.0505382581168" opacity="0.7289239652325842"></circle><circle r="5.229888328255087" cx="125.99779402326202" cy="721.3167872979451" opacity="0.27602991481419514"></circle><circle r="8.525187269953825" cx="750.1802718075188" cy="79.23811169671087" opacity="0.7698906911812077"></circle><circle r="6.818494602300044" cx="471.32539427752846" cy="458.7622440065428" opacity="0.3906009639511535"></circle><circle r="7.486941538723266" cx="321.51014900739057" cy="370.70173382183634" opacity="0.9747262093065436"></circle><circle r="4.434199389563296" cx="580.023509522972" cy="785.1275829112893" opacity="0.27148307840877106"></circle><circle r="9.995456172295167" cx="541.3484751502098" cy="643.9000793358625" opacity="0.6268123146756448"></circle><circle r="5.332550448297338" cx="783.8792008198922" cy="479.27963295011307" opacity="0.8926635168748609"></circle><circle r="5.727464134446455" cx="502.02141289023757" cy="405.2091398320943" opacity="0.46273964330119577"></circle><circle r="6.6111353105124095" cx="447.6098759450838" cy="486.22336833190604" opacity="0.33793701863907083"></circle><circle r="5.97591743053846" cx="754.2502920673578" cy="505.22324044598787" opacity="0.4061181369231752"></circle><circle r="4.872473215897343" cx="335.4137725250233" cy="143.82696722373308" opacity="0.7977032021975275"></circle><circle r="5.486695003261436" cx="416.82785111490534" cy="693.3678800079939" opacity="0.6452681914440337"></circle><circle r="7.2402646655388745" cx="116.98784965022158" cy="174.88175502867145" opacity="0.38273189978986866"></circle><circle r="3.942059773407587" cx="251.1435364516805" cy="139.38671668884777" opacity="0.43168848663441817"></circle><circle r="8.823098614038827" cx="291.59803142331117" cy="592.5983759007023" opacity="0.7024385802221454"></circle><circle r="7.004928853346012" cx="149.6315357203219" cy="696.0554915570982" opacity="0.6575547922403628"></circle><circle r="4.08013527075036" cx="28.472155673675438" cy="610.6416180729786" opacity="0.837630477100739"></circle><circle r="7.38709632406807" cx="142.70298167814133" cy="426.86330659870714" opacity="0.5805501262401335"></circle><circle r="7.227614402199479" cx="245.50615052894906" cy="657.5763886744966" opacity="0.46624382298084854"></circle><circle r="3.096887115582032" cx="312.75857181698774" cy="62.314681113552666" opacity="0.9530282847100884"></circle><circle r="6.116181551555357" cx="98.40888032240758" cy="710.5827213275048" opacity="0.1654762939599716"></circle><circle r="3.311462627012085" cx="605.7468414243583" cy="340.3136708358067" opacity="0.9060126214953563"></circle><circle r="5.815593021441408" cx="782.502836687364" cy="638.5495216976618" opacity="0.5641052543961698"></circle><circle r="4.304082616701419" cx="703.6949312483122" cy="577.5468778588098" opacity="0.12903050693948812"></circle><circle r="4.6855525562696565" cx="622.2821588827968" cy="522.2961411737593" opacity="0.3463888496592894"></circle><circle r="6.9505202695326185" cx="420.91480780681604" cy="594.7614526571092" opacity="0.28511038220585355"></circle><circle r="5.0055072575495245" cx="411.20898952088595" cy="786.7093520896876" opacity="0.5406674322866983"></circle><circle r="7.08666659032429" cx="575.6108856619064" cy="117.16302600996828" opacity="0.7583149952226522"></circle><circle r="4.258888821287157" cx="229.91505338800476" cy="187.37903364631063" opacity="0.8658771589174853"></circle><circle r="6.624972093847886" cx="740.3505844239398" cy="149.90546265225382" opacity="0.7411365223326934"></circle><circle r="2.7763091682395546" cx="89.65036827219052" cy="258.6303063243911" opacity="0.766544026799343"></circle><circle r="5.267993423838166" cx="651.6322170691662" cy="36.602279943125225" opacity="0.6765625935448116"></circle><circle r="3.7069493953838326" cx="779.3966524565795" cy="318.36289315700566" opacity="0.12084978810850433"></circle><circle r="3.2977385174800733" cx="781.9454686607421" cy="249.04103387992794" opacity="0.5956279287796337"></circle><circle r="6.7062198225658065" cx="658.809033074787" cy="617.464792916268" opacity="0.7707455294916399"></circle><circle r="4.947877580734358" cx="589.5839665898889" cy="175.31781452518254" opacity="0.25837165470176227"></circle><circle r="4.083519278795615" cx="113.29257064141366" cy="266.66616788343543" opacity="0.3295487643303891"></circle><circle r="6.933375407979117" cx="294.3517685926137" cy="452.05049944811407" opacity="0.44074853511879086"></circle><circle r="7.352695768640846" cx="121.71699140701843" cy="607.0910059892874" opacity="0.5576006747481729"></circle><circle r="5.865402431324747" cx="386.1062754358827" cy="444.88665363367494" opacity="0.19475777814893708"></circle><circle r="4.082062654125185" cx="509.24568858476584" cy="748.6103452838119" opacity="0.8834748977036729"></circle><circle r="3.87364788581138" cx="730.8582720629447" cy="599.8973671836924" opacity="0.7779185836313983"></circle><circle r="6.731489523972391" cx="189.92622611745784" cy="368.28566585669137" opacity="0.3224446651331576"></circle><circle r="6.9471113224341945" cx="316.17778944213427" cy="663.626276133866" opacity="0.22920800908121602"></circle><circle r="4.615284999927104" cx="12.215334779034153" cy="525.2238634395475" opacity="0.29291528031589853"></circle><circle r="5.102489676902004" cx="44.154576650229956" cy="651.4604163953662" opacity="0.6391924740927144"></circle><circle r="6.107070978418678" cx="202.45733938051978" cy="397.7302418593307" opacity="0.9415533424501346"></circle><circle r="6.122326897221797" cx="102.83767594257542" cy="637.2221732768384" opacity="0.24900559110493276"></circle><circle r="8.110559433839388" cx="21.473913115928607" cy="27.78386959285561" opacity="0.4608255228756538"></circle><circle r="4.526960056885818" cx="710.8691380777672" cy="307.59206214752504" opacity="0.46512174494195324"></circle><circle r="3.1551807103165386" cx="562.4779383673863" cy="356.1756549240128" opacity="0.8813046735624692"></circle><circle r="6.0188691225990825" cx="107.56241043180965" cy="342.67462301277857" opacity="0.4512280753452139"></circle><circle r="4.432705172295238" cx="642.1029152081478" cy="276.8493896030825" opacity="0.3198883442826078"></circle><circle r="5.003799665860001" cx="301.7778084079942" cy="89.49429594983587" opacity="0.576647123265683"></circle><circle r="4.951329349811262" cx="254.10288653889762" cy="166.54183567151682" opacity="0.6233820799785045"></circle><circle r="5.385138751931022" cx="303.3626433364179" cy="13.364165356644351" opacity="0.6933847208606894"></circle><circle r="3.9737471776052646" cx="756.8240673179048" cy="251.122667485648" opacity="0.12407733827114859"></circle><circle r="6.083772377697796" cx="266.34705960849783" cy="333.4806822720684" opacity="0.767840063920912"></circle><circle r="7.241171419283267" cx="646.6156761092566" cy="175.29209526254627" opacity="0.6905234398599877"></circle><circle r="6.908087222457839" cx="17.84780618582593" cy="262.191052320329" opacity="0.45651727175818957"></circle><circle r="8.237783299586734" cx="212.52993021346967" cy="527.4900664173757" opacity="0.8171777520125477"></circle><circle r="4.664390891168678" cx="698.8386624574488" cy="72.59109911034169" opacity="0.8775564608543812"></circle><circle r="5.518181041018425" cx="427.9776117053862" cy="460.03867325063084" opacity="0.11642326588974813"></circle><circle r="7.593771831613795" cx="698.034966544857" cy="612.7124143397346" opacity="0.6082690140747401"></circle><circle r="5.182163450176161" cx="480.25698928364983" cy="259.7986280826098" opacity="0.8404138230405488"></circle><circle r="5.918765791986511" cx="535.2085610241438" cy="415.6111162697195" opacity="0.29847918396103973"></circle><circle r="6.084104761946673" cx="359.71262939699335" cy="396.8157940832533" opacity="0.5818105916010925"></circle><circle r="8.589437495892003" cx="782.353209683601" cy="35.23518804267099" opacity="0.7060064998950935"></circle><circle r="8.308909933151163" cx="292.877165306127" cy="499.4854638789238" opacity="0.7799439591841284"></circle><circle r="6.568549800749659" cx="346.4311984261324" cy="173.80160388981596" opacity="0.233413048699808"></circle><circle r="6.1402055520169885" cx="739.0454389029518" cy="181.11546267979298" opacity="0.2583684867377055"></circle><circle r="4.86943324596401" cx="147.6744245256096" cy="320.31445603925897" opacity="0.2099569218525035"></circle><circle r="4.908457858384844" cx="182.07223804419388" cy="332.6617009247325" opacity="0.7474801873458337"></circle><circle r="6.358028247607746" cx="441.90805426176485" cy="751.4767078873545" opacity="0.9283485100533792"></circle><circle r="5.42861342641284" cx="149.84584366725775" cy="453.9492830991765" opacity="0.8080462645968254"></circle><circle r="5.32798814906732" cx="648.3346188736239" cy="105.45907057790643" opacity="0.38063572104635146"></circle><circle r="5.79507404329181" cx="188.0066616311098" cy="735.7948216360437" opacity="0.73873476831632"></circle><circle r="7.154360384930028" cx="36.01057155503319" cy="562.43319469535" opacity="0.7549004909372977"></circle><circle r="3.632188896094089" cx="696.4430042220944" cy="406.0293618267377" opacity="0.9247108435762237"></circle><circle r="6.976378905888651" cx="782.4485423093989" cy="186.01942909531914" opacity="0.5704925924134344"></circle><circle r="2.379756149649433" cx="709.0958284171057" cy="450.8715359765189" opacity="0.8012086263931921"></circle><circle r="6.728411094702963" cx="600.8776197066348" cy="54.718637689170365" opacity="0.46762426809890467"></circle><circle r="7.580563792536903" cx="737.0379432996334" cy="749.1923890558936" opacity="0.13249313346727284"></circle><circle r="4.196840965736722" cx="313.85486926038715" cy="323.5476813067246" opacity="0.816722165656964"></circle><circle r="5.161025761068837" cx="617.6905436159042" cy="162.39894318738467" opacity="0.9985318571817943"></circle><circle r="5.978078725015369" cx="453.1741567395371" cy="570.0912027091526" opacity="0.9761743509556926"></circle><circle r="5.608105419055147" cx="726.2974845257997" cy="489.8221644056668" opacity="0.7518169191768055"></circle><circle r="4.581508082471048" cx="572.0708832025715" cy="664.4781226004952" opacity="0.15590820217530582"></circle><circle r="10.890846806925712" cx="29.98627416726967" cy="434.79481141442494" opacity="0.8746223204184294"></circle><circle r="6.941111200582721" cx="289.79530884402834" cy="310.6128224953164" opacity="0.699095268199756"></circle><circle r="4.161486244870836" cx="737.0136701415387" cy="438.819863524014" opacity="0.7374134815496953"></circle><circle r="6.279561472734143" cx="572.0113529865879" cy="721.5664515903146" opacity="0.2639647243774492"></circle><circle r="8.226077080922844" cx="564.9942470723328" cy="397.8047838086203" opacity="0.2925812110305154"></circle><circle r="3.2838766107255837" cx="757.4844201949444" cy="664.8796323660113" opacity="0.9527154341375366"></circle><circle r="6.062987294891623" cx="222.6181613326143" cy="112.54825018635033" opacity="0.8498810026860204"></circle><circle r="8.596992968115577" cx="155.10943093462424" cy="57.89458335981805" opacity="0.49895315336026125"></circle><circle r="4.377530229707604" cx="691.3103685311827" cy="479.9177932426076" opacity="0.5233412144208455"></circle><circle r="7.973103667631543" cx="443.9558119201048" cy="326.62375727823957" opacity="0.4232921769900718"></circle><circle r="8.372832399402748" cx="86.67045670019371" cy="602.033285040008" opacity="0.7906835349615462"></circle><circle r="3.7149829069888156" cx="682.5064836406738" cy="427.2379356125502" opacity="0.7685106838735563"></circle><circle r="4.0090841961131005" cx="514.3471752299151" cy="10.434602851174933" opacity="0.5232219572773085"></circle><circle r="6.057449897480678" cx="219.25099607980215" cy="562.8778715449529" opacity="0.16841566770356084"></circle><circle r="5.895311247432047" cx="325.2896191619681" cy="764.0281004356718" opacity="0.6361135666415008"></circle><circle r="5.744476545409801" cx="628.1272268982648" cy="79.9718944185158" opacity="0.723894186995569"></circle><circle r="5.520790728319499" cx="477.6944620486443" cy="217.4772138837497" opacity="0.10206338190089942"></circle><circle r="6.12385695862174" cx="294.1764967965347" cy="631.4699939460165" opacity="0.132968872489928"></circle><circle r="3.905766742020057" cx="494.6916372396089" cy="183.75168173256432" opacity="0.37206109906097184"></circle><circle r="7.114014289227979" cx="445.1429219473712" cy="631.5042028001177" opacity="0.10450968321834805"></circle><circle r="6.249219898141611" cx="546.1314048100862" cy="292.0070205972653" opacity="0.4991973596730297"></circle><circle r="4.478640217856206" cx="247.520569486464" cy="506.71344176998895" opacity="0.8975825189267213"></circle><circle r="5.5752441151283785" cx="200.57146137461766" cy="494.29824882603873" opacity="0.5735452531321373"></circle><circle r="5.0193399406868835" cx="688.8055371455323" cy="448.55683651369344" opacity="0.5234288221996914"></circle><circle r="5.560385958891455" cx="533.7517475832694" cy="443.9871661880111" opacity="0.6660091010071569"></circle><circle r="7.7932875227949605" cx="34.93599950279316" cy="394.314403471406" opacity="0.8296578602162304"></circle><circle r="3.598927284613924" cx="371.59299090949054" cy="35.096530867631095" opacity="0.4846431377744397"></circle><circle r="6.215898478872256" cx="361.5977840384238" cy="122.92108242458502" opacity="0.24103275570189556"></circle><circle r="3.8102935690029036" cx="307.4571149298991" cy="117.99993755596049" opacity="0.3999018545879022"></circle><circle r="7.37624633222897" cx="244.06916697636396" cy="75.29577210654855" opacity="0.9033284914732043"></circle><circle r="3.4870515196080087" cx="652.3859005672882" cy="296.3140246029584" opacity="0.4680524436875243"></circle><circle r="5.158110258025874" cx="332.47830049391285" cy="285.7338184352392" opacity="0.19846024992569383"></circle><circle r="6.891902952948634" cx="20.288215199487826" cy="719.2367932932437" opacity="0.3318348411975196"></circle><circle r="6.263296027446822" cx="181.81902668424524" cy="262.9581219860153" opacity="0.2984651210099466"></circle><circle r="5.966989837647293" cx="252.60838445114788" cy="262.0379364813709" opacity="0.44505423808826505"></circle><circle r="6.279682763163416" cx="272.83422961395235" cy="115.82807608335813" opacity="0.9047385813478677"></circle><circle r="5.983354097255181" cx="252.55352908312602" cy="545.4964537884127" opacity="0.35586772091510865"></circle><circle r="4.6578468559573984" cx="473.8546263411771" cy="748.3017924049069" opacity="0.33354433650670967"></circle><circle r="4.135661914620298" cx="757.8637907242697" cy="211.83357492967954" opacity="0.9136790026817689"></circle><circle r="5.665439421123964" cx="684.1403900979899" cy="303.16771232345394" opacity="0.32455937405695345"></circle><circle r="3.913858511512317" cx="482.2003915562426" cy="635.9276243674987" opacity="0.754972113225487"></circle><circle r="6.186530546220299" cx="665.6452341638582" cy="534.9508316085919" opacity="0.8801285873669206"></circle><circle r="4.298632092174803" cx="511.62429600838635" cy="681.9010859598262" opacity="0.5622759403197758"></circle><circle r="6.681390057824629" cx="493.4229090333318" cy="495.32156732058627" opacity="0.48173132343604763"></circle><circle r="5.471217473958369" cx="789.0194627472442" cy="426.36907203068824" opacity="0.3029729107154851"></circle><circle r="5.038995566716172" cx="591.2376037231413" cy="140.72548865468576" opacity="0.595239020627147"></circle><circle r="5.984327024148781" cx="165.8076777129346" cy="386.76639247429694" opacity="0.3585531341081687"></circle><circle r="8.4866621586504" cx="219.9834678402404" cy="728.0782315553843" opacity="0.6721132946803018"></circle><circle r="4.7560066833906" cx="13.595857078380137" cy="165.68342116197567" opacity="0.7754417966830885"></circle><circle r="7.934131559338346" cx="365.52401092747317" cy="478.527072569036" opacity="0.7410326832913086"></circle><circle r="5.783406767456341" cx="176.73011527905885" cy="425.9383166079802" opacity="0.5909905329204008"></circle><circle r="7.553224874643292" cx="658.1622580527346" cy="454.0905233559315" opacity="0.20282052647194726"></circle><circle r="8.091676558869697" cx="678.4871577251108" cy="95.331743088065" opacity="0.1251565592595034"></circle><circle r="10.335453200237435" cx="66.51755074442282" cy="490.56417941815556" opacity="0.999340775367496"></circle><circle r="6.405493609935826" cx="646.8714703610738" cy="408.0464482195676" opacity="0.474593584288592"></circle><circle r="5.068464109390878" cx="739.3563774797829" cy="229.76626778736207" opacity="0.8542583866509751"></circle><circle r="4.978920217140477" cx="476.6805062229924" cy="424.79926948850044" opacity="0.11336312027981299"></circle><circle r="7.93679927096324" cx="678.6374381450063" cy="233.69099920588943" opacity="0.6687685050238918"></circle><circle r="3.099320298972618" cx="137.1308310277908" cy="268.36523806497047" opacity="0.6571900530211805"></circle><circle r="3.941994792861169" cx="291.7065799165429" cy="703.8948742122383" opacity="0.14903391234027555"></circle><circle r="3.9807590524495002" cx="619.9336516356192" cy="749.0585700774047" opacity="0.8392879372822132"></circle><circle r="7.497693821943893" cx="192.053485488016" cy="700.1373671339185" opacity="0.8491516876988124"></circle><circle r="2.2755881899196604" cx="141.4807102861233" cy="239.15074038272746" opacity="0.48588931561583404"></circle><circle r="4.638543850564575" cx="160.9701173621881" cy="641.3718781520932" opacity="0.2573192230206508"></circle><circle r="7.237638077605384" cx="109.9418484172272" cy="672.1287507334997" opacity="0.34600006448878984"></circle><circle r="9.58261473805366" cx="385.5693395892514" cy="163.45836997257976" opacity="0.5920752372787192"></circle><circle r="6.095673453941303" cx="407.5201401405302" cy="749.6063742696566" opacity="0.3909371728029558"></circle><circle r="5.104410285594314" cx="424.18907618153725" cy="12.52737858267977" opacity="0.6843142488370016"></circle><circle r="3.7962235150859334" cx="110.577177928953" cy="787.437023304465" opacity="0.3085856789240946"></circle><circle r="5.708844072703656" cx="38.39317986327397" cy="118.59904431447595" opacity="0.14279878490962494"></circle><circle r="5.536811227411914" cx="478.6082672680446" cy="709.836473204305" opacity="0.49355710216748017"></circle><circle r="5.478242068783616" cx="652.0221645108733" cy="673.2357405779034" opacity="0.7542761773807671"></circle><circle r="7.105484500466423" cx="154.5798450153464" cy="609.5420103548772" opacity="0.47030968081194646"></circle><circle r="5.621827897610755" cx="36.26412104660683" cy="692.5684438972512" opacity="0.7503261789516718"></circle><circle r="5.298528374847414" cx="64.63467463918545" cy="671.2977062612601" opacity="0.19607618929606324"></circle><circle r="4.999751672146299" cx="11.091413086902692" cy="558.0537966915085" opacity="0.7030225967912014"></circle><circle r="8.01917124368895" cx="546.0744393449263" cy="750.5890514179855" opacity="0.931995361496121"></circle><circle r="6.83470710839338" cx="492.2142973022654" cy="154.16557055084445" opacity="0.12519271352448028"></circle><circle r="5.744062140041456" cx="349.2304101447577" cy="13.526129728061052" opacity="0.657447741802733"></circle><circle r="4.355404734342634" cx="419.7105552696836" cy="152.82121895787927" opacity="0.8739348120369529"></circle><circle r="4.752729827825229" cx="274.13897097410074" cy="785.0017885478328" opacity="0.9663405224224296"></circle><circle r="3.4528653007471144" cx="401.0425150560605" cy="258.9088421247785" opacity="0.49547111836687585"></circle><circle r="4.05854744055029" cx="322.292445026053" cy="30.376727977158083" opacity="0.9766445327931593"></circle><circle r="5.382893815074601" cx="336.37005871644544" cy="786.7236549691931" opacity="0.9857914783431255"></circle><circle r="6.582640249872181" cx="93.77516772889213" cy="556.1795833263616" opacity="0.47045359224579864"></circle><circle r="5.85930015229739" cx="782.9872854321472" cy="92.60882841754295" opacity="0.12984676525523842"></circle><circle r="7.1171876282089475" cx="106.4042315285092" cy="15.358487275892031" opacity="0.19619506860835884"></circle><circle r="3.740246369866487" cx="49.782414046586176" cy="588.7523564892226" opacity="0.9308645058105731"></circle><circle r="7.4742052903724545" cx="438.09839940958375" cy="272.8300666108214" opacity="0.20324722282384058"></circle><circle r="5.896118014950532" cx="152.85253824637465" cy="200.52393015568475" opacity="0.5363418789997176"></circle><circle r="3.4005057795972617" cx="453.6472544791164" cy="84.7864428607425" opacity="0.12446709144484147"></circle><circle r="10.540395681256118" cx="396.45105136902293" cy="553.0583226991741" opacity="0.7583598036272393"></circle><circle r="7.2172595786832066" cx="697.3467039412565" cy="371.0311196236852" opacity="0.8646604310969641"></circle><circle r="4.861515002345759" cx="536.9035404218362" cy="482.53356847993126" opacity="0.4736571590390519"></circle><circle r="5.594132447287658" cx="381.09051467135146" cy="754.2444132562529" opacity="0.5774855160616288"></circle><circle r="4.178367311764628" cx="255.36905576614615" cy="626.1527224304178" opacity="0.7887784710096484"></circle><circle r="4.294714962039513" cx="632.8703209072971" cy="248.14279627786516" opacity="0.7495644408056262"></circle><circle r="6.751830417459526" cx="326.5641567642454" cy="515.4993174556851" opacity="0.41329599686412566"></circle><circle r="5.696260327886677" cx="274.87385997709606" cy="182.72100605481697" opacity="0.4576898009540148"></circle><circle r="3.7392178535439635" cx="460.6915741732009" cy="781.3856425000338" opacity="0.24234532585291613"></circle><circle r="5.097091360051557" cx="715.5459969102357" cy="646.4313136109031" opacity="0.7218431208749658"></circle><circle r="4.19231717119964" cx="14.017621843821173" cy="583.69301377663" opacity="0.22577788834352144"></circle><circle r="7.410279368143592" cx="539.6875770501641" cy="64.03194950186106" opacity="0.10584664756750274"></circle><circle r="7.778477782222193" cx="92.1569697382533" cy="760.0281612071539" opacity="0.7047354954999698"></circle><circle r="4.441376266707078" cx="548.3608314567794" cy="220.99884239536416" opacity="0.5914848055460953"></circle><circle r="4.970253795119343" cx="722.4294463839921" cy="58.40046800461667" opacity="0.7592290043845128"></circle><circle r="2.890749427394639" cx="332.5003250460494" cy="58.716464011784595" opacity="0.24871134518812735"></circle><circle r="5.232113029787848" cx="772.0557849793213" cy="679.7671631402226" opacity="0.5141785540196265"></circle><circle r="5.43030910265888" cx="71.14347988300247" cy="45.15514043018329" opacity="0.6850241241712317"></circle><circle r="8.325778349472035" cx="616.4804157849808" cy="215.50150234109663" opacity="0.3790451460340448"></circle><circle r="4.216726576549853" cx="759.5541749117724" cy="10.671353107555415" opacity="0.6296502490010589"></circle><circle r="4.544666897998798" cx="591.5665724042708" cy="371.8591176901433" opacity="0.1211737215320059"></circle><circle r="5.294714005821229" cx="193.81801176220995" cy="466.8083494156453" opacity="0.4650739303390803"></circle><circle r="7.53214517001863" cx="694.5362295567655" cy="742.3205812846204" opacity="0.8319306584710408"></circle><circle r="6.382690841687193" cx="83.57349807392005" cy="448.61913568361973" opacity="0.16870013753862628"></circle><circle r="7.500522535383686" cx="345.4584490694422" cy="429.0753058433175" opacity="0.35846981452072624"></circle><circle r="5.451304032059032" cx="787.3797168010187" cy="223.63324890109246" opacity="0.9159032488272869"></circle><circle r="5.372066968917112" cx="456.9580938686363" cy="364.1166565622713" opacity="0.39291445285368"></circle><circle r="6.925602556629684" cx="196.32931927306527" cy="589.1354576629506" opacity="0.8549021684459104"></circle><circle r="3.865808377721272" cx="714.8310088135686" cy="509.4888335083156" opacity="0.595051894224263"></circle><circle r="5.432762930139631" cx="504.87760241679894" cy="357.4493001006666" opacity="0.9082044049199484"></circle><circle r="4.580824596656165" cx="581.3065317481626" cy="338.99364259217685" opacity="0.6628259729404915"></circle><circle r="6.1698151379465225" cx="546.2269373120488" cy="127.69588500223311" opacity="0.27907208356566615"></circle><circle r="5.707603758358051" cx="680.8741843032014" cy="689.5339621986467" opacity="0.1434828787411429"></circle><circle r="7.832175313520388" cx="47.191542100818786" cy="247.6930387826052" opacity="0.5879725243969711"></circle><circle r="5.4800299644397725" cx="787.1214460551188" cy="294.1542159545088" opacity="0.959705321858672"></circle><circle r="6.1665992296297" cx="564.7013869035651" cy="603.0358543954734" opacity="0.8300625519918173"></circle><circle r="4.642067932912964" cx="585.9052765127716" cy="753.0812071805098" opacity="0.9745128667592973"></circle><circle r="5.35838240552855" cx="397.5112983842523" cy="710.5786291569731" opacity="0.4630765647102596"></circle><circle r="6.963425420451846" cx="511.03887843511717" cy="208.27246603356718" opacity="0.4683173083389329"></circle><circle r="5.407637766773264" cx="298.1597547094787" cy="282.54498551151335" opacity="0.26611403891393104"></circle><circle r="3.815096997953484" cx="253.66305507603315" cy="206.45383419993522" opacity="0.21333527742872588"></circle><circle r="6.324639032418091" cx="51.58636201825699" cy="616.2893632367579" opacity="0.9978334607156658"></circle><circle r="5.210247442587973" cx="162.7826415627182" cy="482.1513055806239" opacity="0.29168082905239956"></circle><circle r="9.258619821616339" cx="450.57015243114336" cy="679.3768405884609" opacity="0.6854585781297619"></circle><circle r="4.7641771203444945" cx="102.52147716447928" cy="416.9109808166324" opacity="0.6525814081833746"></circle><circle r="3.9236474070032" cx="514.9184241495578" cy="718.0290591676307" opacity="0.2597162765890011"></circle><circle r="3.0715517767140303" cx="745.4335148779523" cy="410.59460728950387" opacity="0.19226050041214546"></circle><circle r="5.116483491158728" cx="623.7399792067971" cy="20.69783539447172" opacity="0.7684388859013084"></circle><circle r="4.96012042010447" cx="457.74554035050426" cy="107.10955744598827" opacity="0.1658515932881483"></circle><circle r="9.345871524645679" cx="84.9930233929009" cy="110.53403074196487" opacity="0.9022054869085911"></circle><circle r="3.346472896212608" cx="279.8569651745066" cy="360.71845884605636" opacity="0.9414503165764796"></circle><circle r="5.624305858571811" cx="456.74134647521026" cy="241.35280114626408" opacity="0.9421089443801456"></circle><circle r="3.879434163540785" cx="787.5101551754179" cy="599.1699011428723" opacity="0.8137440065737652"></circle><circle r="4.579465828104365" cx="769.6057911879453" cy="443.90095343573387" opacity="0.632427980245803"></circle><circle r="5.763820758266164" cx="311.4214509548049" cy="406.9061978420548" opacity="0.7660121101124445"></circle><circle r="5.279834018612274" cx="456.3737764002767" cy="37.374015848756194" opacity="0.7094945299546037"></circle><circle r="6.073300875835264" cx="594.9661935925983" cy="15.627675525009929" opacity="0.6712366462687728"></circle><circle r="4.1096796346755475" cx="393.1304040862123" cy="88.01085506254205" opacity="0.5815001353924137"></circle></g></svg>